<?xml version="1.0" encoding="utf-8"?>
<!-- Generator: Adobe Illustrator 17.1.0, SVG Export Plug-In . SVG Version: 6.00 Build 0)  -->
<!DOCTYPE svg PUBLIC "-//W3C//DTD SVG 1.1//EN" "http://www.w3.org/Graphics/SVG/1.1/DTD/svg11.dtd">
<svg version="1.1" id="Layer_2" xmlns="http://www.w3.org/2000/svg" xmlns:xlink="http://www.w3.org/1999/xlink" x="0px" y="0px"
	 viewBox="0 0 34.3 27.6" enable-background="new 0 0 34.3 27.6" xml:space="preserve">
<path fill="#00016C" d="M33.5,3.8H1c-0.1,0-0.2,0.1-0.2,0.2v9.4c0.2,0.1,0.4,0.1,0.5,0.2c0.1,0,0.1,0,0.2,0.1l0.1,0l0.2,0.1
	c0.2,0.1,0.3,0.1,0.5,0.2l0.2,0.1l0.1,0c0.2,0.1,0.4,0.1,0.6,0.2c0.1,0,0.1,0,0.2,0.1l0.2,0l0.1,0c0.2,0,0.3,0.1,0.5,0.1
	c0.1,0,0.2,0.1,0.3,0.1l0.1,0l0.1,0c0.1,0,0.3,0.1,0.4,0.1c0.1,0,0.2,0,0.3,0.1l0.2,0l0.2,0c0.1,0,0.2,0.1,0.4,0.1
	C6.4,15,6.5,15,6.6,15l0.2,0l0.2,0c0.1,0,0.2,0,0.3,0.1c0.1,0,0.3,0.1,0.4,0.1l0.2,0l0.1,0c0.1,0,0.2,0,0.3,0.1c0.1,0,0.3,0,0.5,0.1
	l0.2,0l0.2,0l0.3,0c0.2,0,0.3,0.1,0.5,0.1l0.2,0l0.1,0c0.1,0,0.2,0,0.2,0c0.2,0,0.4,0.1,0.7,0.1l0.1,0l0.2,0c0.1,0,0.1,0,0.2,0
	c0.2,0,0.5,0,0.7,0.1l0.2,0l0.2,0c0.2,0,0.4,0,0.5,0l0.2,0l0.2,0c0.1,0,0.1,0,0.2,0c0.2,0,0.3,0,0.5,0l0.2,0l0.1,0c0,0,0.1,0,0.1,0
	v-1.3c0-0.9,0.7-1.5,1.5-1.5h1.9c0.9,0,1.5,0.7,1.5,1.5v1.4c0,0,0,0,0,0l0.2,0l0.2,0c0.2,0,0.3,0,0.5,0c0.1,0,0.1,0,0.2,0l0.1,0
	c0.3,0,0.5,0,0.8-0.1l0.1,0l0.2,0c0.3,0,0.5,0,0.8-0.1l0.2,0l0.1,0c0.3,0,0.5-0.1,0.8-0.1l0.2,0l0.2,0l0.1,0c0.2,0,0.4-0.1,0.7-0.1
	c0.1,0,0.1,0,0.2,0l0.2,0l0.2,0c0.2,0,0.4-0.1,0.5-0.1c0.1,0,0.2,0,0.3,0l0.1,0l0.1,0c0.2,0,0.4-0.1,0.6-0.1c0.1,0,0.2,0,0.2,0
	l0.2,0l0.1,0c0.2,0,0.3-0.1,0.5-0.1c0.1,0,0.2-0.1,0.4-0.1l0.1,0l0.1,0c0.2,0,0.3-0.1,0.5-0.1c0.1,0,0.2-0.1,0.4-0.1l0.1,0l0.2,0
	c0.1,0,0.2-0.1,0.3-0.1c0.2,0,0.3-0.1,0.4-0.1l0.1,0l0.1,0c0.1,0,0.2-0.1,0.4-0.1c0.1,0,0.2-0.1,0.4-0.1l0.2-0.1l0.1,0
	c0.1,0,0.2-0.1,0.3-0.1c0.1,0,0.3-0.1,0.4-0.1l0.1,0l0.1,0c0.1,0,0.2-0.1,0.3-0.1c0.1-0.1,0.3-0.1,0.4-0.2l0.1,0l0-9.4
	C33.7,3.9,33.6,3.8,33.5,3.8z M18.4,17.5c-0.4,0-0.8,0-1.1,0c-0.4,0-0.7,0-1.1,0v1.7c0,0.1,0.1,0.2,0.2,0.2h1.9"/>
<path fill="#4C4D98" d="M20.8,2.4l0-1.6l-7.1,0l0,1.6H20.8z M33.1,16L33.1,16l-0.2,0.1c-0.1,0-0.2,0.1-0.3,0.1
	c-0.2,0.1-0.4,0.1-0.5,0.2l-0.1,0l-0.3,0.1c-0.2,0.1-0.4,0.1-0.6,0.2l-0.2,0.1c-0.1,0-0.2,0.1-0.3,0.1c-0.1,0-0.2,0.1-0.4,0.1
	l-0.2,0l-0.1,0c-0.1,0-0.2,0.1-0.4,0.1c-0.1,0-0.3,0.1-0.4,0.1l-0.1,0l-0.1,0c-0.1,0-0.3,0.1-0.4,0.1c-0.1,0-0.3,0.1-0.4,0.1l-0.2,0
	l-0.2,0c-0.1,0-0.2,0-0.3,0.1c-0.1,0-0.3,0.1-0.4,0.1l-0.2,0l-0.2,0c-0.1,0-0.2,0-0.4,0.1c-0.1,0-0.3,0-0.4,0.1l-0.1,0l-0.2,0
	c-0.1,0-0.2,0-0.4,0.1c-0.2,0-0.3,0-0.5,0.1l-0.1,0l-0.2,0c-0.1,0-0.2,0-0.3,0c-0.1,0-0.3,0-0.4,0.1l-0.2,0l-0.1,0
	c-0.1,0-0.3,0-0.4,0c-0.2,0-0.3,0-0.5,0l-0.1,0l-0.2,0c-0.1,0-0.2,0-0.4,0c-0.1,0-0.2,0-0.4,0l-0.2,0l-0.2,0c-0.1,0-0.3,0-0.4,0
	c-0.1,0-0.2,0-0.3,0l-0.2,0l-0.2,0c-0.1,0-0.2,0-0.2,0v1.8c0,0.9-0.7,1.5-1.5,1.5h-1.9c-0.9,0-1.5-0.7-1.5-1.5v-1.8
	c-0.1,0-0.2,0-0.2,0l-0.2,0l-0.2,0c-0.1,0-0.3,0-0.4,0c-0.1,0-0.2,0-0.3,0l-0.2,0l-0.2,0c-0.1,0-0.3,0-0.4,0c-0.1,0-0.3,0-0.4,0
	l-0.1,0l-0.2,0c-0.1,0-0.3,0-0.4,0c-0.1,0-0.2,0-0.3,0l-0.2,0l-0.2,0c-0.1,0-0.3,0-0.4-0.1c-0.1,0-0.2,0-0.4-0.1l-0.1,0l-0.2,0
	c-0.1,0-0.3,0-0.4-0.1c-0.1,0-0.2,0-0.3-0.1l-0.2,0l-0.1,0c-0.2,0-0.3,0-0.5-0.1c-0.1,0-0.3,0-0.4-0.1l-0.1,0l-0.1,0
	c-0.1,0-0.3-0.1-0.4-0.1c-0.1,0-0.3-0.1-0.4-0.1l-0.1,0l-0.2,0c-0.1,0-0.3-0.1-0.4-0.1c-0.1,0-0.3-0.1-0.4-0.1l-0.1,0l-0.1,0
	c-0.1,0-0.3-0.1-0.4-0.1c-0.1,0-0.2,0-0.3-0.1l-0.2-0.1l-0.1,0c-0.1,0-0.3-0.1-0.4-0.1c-0.1,0-0.2-0.1-0.3-0.1l-0.2-0.1l-0.1,0
	c-0.1,0-0.3-0.1-0.4-0.1c-0.1,0-0.3-0.1-0.4-0.1l-0.1,0l-0.1,0c-0.1,0-0.3-0.1-0.4-0.1c-0.2,0-0.3-0.1-0.5-0.2
	c-0.2-0.1-0.4-0.1-0.5-0.2c0,0-0.1,0-0.1,0v10.8c0,0.1,0.1,0.2,0.2,0.2h32.6c0.1,0,0.2-0.1,0.2-0.2V15.8l-0.1,0
	C33.4,15.9,33.3,15.9,33.1,16z"/>
</svg>
