<?xml version="1.0" encoding="utf-8"?>
<!-- Generator: Adobe Illustrator 17.1.0, SVG Export Plug-In . SVG Version: 6.00 Build 0)  -->
<!DOCTYPE svg PUBLIC "-//W3C//DTD SVG 1.1//EN" "http://www.w3.org/Graphics/SVG/1.1/DTD/svg11.dtd">
<svg version="1.1" id="Layer_1" xmlns="http://www.w3.org/2000/svg" xmlns:xlink="http://www.w3.org/1999/xlink" x="0px" y="0px"
	 viewBox="0 0 34.7 27.7" enable-background="new 0 0 34.7 27.7" xml:space="preserve">
<path fill="#d1b808" d="M31.4,8.8c2.3,2.1,0.6,2.8-0.1,2.9c-1.5-5.1-7-8.9-13.6-8.9c-1.6,0-3.1,0.2-4.5,0.6c-0.5-0.8-2.8-3.6-8.4-3
	C5.4,1.5,6.5,5.3,6.9,7c-0.8,0.8-1.4,1.6-2,2.5l-3,1c0,0-1.1,0.3-1.1,1.7c0,1.4,0,3.2,0,4.6c0,1.3,1.1,1.7,1.1,1.7l3.1,1
	c0.8,1.4,2,2.6,3.4,3.6l-0.8,4.1h7.2l0.6-1.4c0.7,0.1,1.5,0.2,2.3,0.2c1.5,0,3-0.2,4.4-0.6l0.8,1.8H30l-1.1-5.9
	c1.7-1.9,2.7-4.3,2.7-6.8c0,0,0,0,0-0.1c0.6-0.1,1.6-0.4,2.1-1.2C34.8,11.6,34.5,8.6,31.4,8.8z M9.3,10.9c-0.7,0-1.3-0.6-1.3-1.3
	c0-0.7,0.6-1.3,1.3-1.3c0.7,0,1.3,0.6,1.3,1.3C10.6,10.3,10,10.9,9.3,10.9z M17.9,19.1v1.5H17v-1.4c-0.8,0-1.7-0.3-2.2-0.6l0.3-1
	c0.5,0.3,1.2,0.6,2,0.6c1,0,1.7-0.6,1.7-1.4c0-0.8-0.6-1.3-1.6-1.7c-1.4-0.6-2.3-1.2-2.3-2.5c0-1.2,0.8-2.1,2.1-2.3V8.9H18v1.4
	c0.9,0,1.4,0.3,1.8,0.5l-0.4,0.9c-0.3-0.2-0.9-0.5-1.8-0.5c-1.1,0-1.5,0.7-1.5,1.2c0,0.7,0.5,1.1,1.8,1.6c1.5,0.6,2.2,1.3,2.2,2.6
	C20.2,17.8,19.4,18.8,17.9,19.1z"/>
</svg>
