<?xml version="1.0" encoding="utf-8"?>
<!-- Generator: Adobe Illustrator 17.1.0, SVG Export Plug-In . SVG Version: 6.00 Build 0)  -->
<!DOCTYPE svg PUBLIC "-//W3C//DTD SVG 1.1//EN" "http://www.w3.org/Graphics/SVG/1.1/DTD/svg11.dtd">
<svg version="1.1" id="Layer_1" xmlns="http://www.w3.org/2000/svg" xmlns:xlink="http://www.w3.org/1999/xlink" x="0px" y="0px"
	 viewBox="0 0 26.5 41.7" enable-background="new 0 0 26.5 41.7" xml:space="preserve">
<path fill-rule="evenodd" clip-rule="evenodd" fill="#00016C" d="M25.5,28.2L25.5,28.2l-0.2-8.5c0-1.1-1-2-2.1-2c-1.1,0-2,1-2,2.1
	l0.1,6.2l-0.9,0L20,5.6c0-1.1-1-2-2.1-2c-1.1,0-2,1-2,2.1l0.3,15.6l-1,0L14.9,3.1c0-1.1-1-2-2.1-2c-1.1,0-2,1-2,2.1l0.3,18.2l-0.8,0
	L10,5.8c0-1.1-1-2-2.1-2c-1.1,0-2,1-2,2.1l0.3,17.1l-0.8,0l-0.2-9.7c0-1.1-1-2-2.1-2c-1.1,0-2,1-2,2.1L1.4,30c0,0.3,0.1,0.6,0.2,0.8
	c1,5.7,6.1,10,12.1,9.9c6.7-0.1,11.9-5.6,11.8-12.3C25.5,28.4,25.5,28.3,25.5,28.2z M17.3,30.8L13,35.3l-0.3,0.3l-0.3-0.3l-4.5-4.5
	C7.3,30.2,7,29.4,7,28.5c0-1.8,1.4-3.2,3.2-3.2c1,0,1.9,0.5,2.5,1.2c0.6-0.8,1.5-1.2,2.5-1.2c1.7,0,3.2,1.4,3.2,3.2
	C18.3,29.4,18,30.2,17.3,30.8z"/>
</svg>
