<?xml version="1.0" encoding="utf-8"?>
<!-- Generator: Adobe Illustrator 17.1.0, SVG Export Plug-In . SVG Version: 6.00 Build 0)  -->
<!DOCTYPE svg PUBLIC "-//W3C//DTD SVG 1.1//EN" "http://www.w3.org/Graphics/SVG/1.1/DTD/svg11.dtd">
<svg version="1.1" xmlns="http://www.w3.org/2000/svg" xmlns:xlink="http://www.w3.org/1999/xlink" x="0px" y="0px"
	 viewBox="0 0 31.9 34.4" enable-background="new 0 0 31.9 34.4" xml:space="preserve">
<g id="Layer_1">
	<path fill="#00016C" d="M20.1,7.5c0,3.9-3.1,7-7,7c-3.9,0-7-3.1-7-7c0-3.9,3.1-7,7-7C16.9,0.5,20.1,3.6,20.1,7.5z"/>
</g>
<g id="Layer_2">
	<path fill="#00016C" d="M19,29.4l6.2-10.7c-0.8-2-3.1-3.4-5.8-3.4h-2.6l-3.7,7l-3.7-7H6.7c-3.3,0-6.1,2.1-6.1,4.8v13.8h18.8
		L19,29.4z"/>
	<g>
		<polygon fill="#00016C" points="20.3,29.9 21.4,30.2 22.2,31.1 23.3,31.4 24.1,32.1 24.1,32.1 24.1,32.1 29.9,22.1 26,19.9 		"/>
		<path fill="#4C4D98" d="M31,18.8l-2.7-1.5c-0.3-0.2-0.7-0.1-0.9,0.2l-1,1.8l3.8,2.2l1-1.8C31.5,19.4,31.3,19,31,18.8z"/>
		<polygon fill="#FFFFFF" points="24.1,32.1 24.1,32.1 23.3,31.4 22.2,31.1 21.4,30.2 20.3,29.9 20.7,33.6 		"/>
		<polygon fill="#4C4D98" points="22.2,32.9 20.5,31.9 20.7,33.6 		"/>
		
			<rect x="25.9" y="20.3" transform="matrix(-0.8662 -0.4998 0.4998 -0.8662 42.1946 52.683)" fill="#FFFFFF" width="4.4" height="0.8"/>
	</g>
</g>
</svg>
