<?xml version="1.0" encoding="utf-8"?>
<!-- Generator: Adobe Illustrator 17.1.0, SVG Export Plug-In . SVG Version: 6.00 Build 0)  -->
<!DOCTYPE svg PUBLIC "-//W3C//DTD SVG 1.1//EN" "http://www.w3.org/Graphics/SVG/1.1/DTD/svg11.dtd">
<svg version="1.1" id="Layer_1" xmlns="http://www.w3.org/2000/svg" xmlns:xlink="http://www.w3.org/1999/xlink" x="0px" y="0px"
	 viewBox="0 0 33.4 35.3" enable-background="new 0 0 33.4 35.3" xml:space="preserve">
<path fill="#00016C" d="M30.7,7.7h-28c-1.2,0-2.2,1-2.2,2.2v22.7c0,1.2,1,2.2,2.2,2.2h28c1.2,0,2.2-1,2.2-2.2V9.9
	C32.9,8.6,31.9,7.7,30.7,7.7z M29.6,31.5H3.8V15h25.7V31.5z"/>
<g>
	<path fill="#F0E68C" d="M8.3,11.8c-1.4,0-2.6-1-2.6-2.2V4c0-1.2,1.1-2.2,2.6-2.2c1.4,0,2.6,1,2.6,2.2v5.6
		C10.9,10.8,9.7,11.8,8.3,11.8z"/>
	<path fill="#FFFFFF" d="M8.3,0.9C6.5,0.9,4.9,2.3,4.9,4v5.6c0,1.7,1.5,3.1,3.4,3.1c1.9,0,3.4-1.4,3.4-3.1V4
		C11.7,2.3,10.2,0.9,8.3,0.9z M10.1,9.5c0,0.8-0.8,1.4-1.7,1.4c-1,0-1.7-0.6-1.7-1.4V4c0-0.8,0.8-1.4,1.7-1.4c1,0,1.7,0.6,1.7,1.4
		V9.5z"/>
</g>
<g>
	<path fill="#F0E68C" d="M25.1,11.8c-1.4,0-2.6-1-2.6-2.2V4c0-1.2,1.1-2.2,2.6-2.2c1.4,0,2.6,1,2.6,2.2v5.6
		C27.6,10.8,26.5,11.8,25.1,11.8z"/>
	<path fill="#FFFFFF" d="M25.1,12.6c-1.9,0-3.4-1.4-3.4-3.1V4c0-1.7,1.5-3.1,3.4-3.1c1.9,0,3.4,1.4,3.4,3.1v5.6
		C28.5,11.2,26.9,12.6,25.1,12.6z M25.1,2.5c-1,0-1.7,0.6-1.7,1.4v5.6c0,0.8,0.8,1.4,1.7,1.4c1,0,1.7-0.6,1.7-1.4V4
		C26.8,3.2,26.1,2.5,25.1,2.5z"/>
</g>
<g>
	<rect x="7.2" y="17.3" fill="#4C4D98" width="4.8" height="4.8"/>
	<rect x="14.3" y="17.3" fill="#4C4D98" width="4.8" height="4.8"/>
	<rect x="21.4" y="17.3" fill="#4C4D98" width="4.8" height="4.8"/>
</g>
<g>
	<rect x="7.2" y="24.3" fill="#4C4D98" width="4.8" height="4.8"/>
	<rect x="14.3" y="24.3" fill="#4C4D98" width="4.8" height="4.8"/>
</g>
</svg>
