<?xml version="1.0" encoding="utf-8"?>
<!-- Generator: Adobe Illustrator 17.1.0, SVG Export Plug-In . SVG Version: 6.00 Build 0)  -->
<!DOCTYPE svg PUBLIC "-//W3C//DTD SVG 1.1//EN" "http://www.w3.org/Graphics/SVG/1.1/DTD/svg11.dtd">
<svg version="1.1" id="Layer_1" xmlns="http://www.w3.org/2000/svg" xmlns:xlink="http://www.w3.org/1999/xlink" x="0px" y="0px"
	 viewBox="-566.8 61.5 88.8 87.5" enable-background="new -566.8 61.5 88.8 87.5" xml:space="preserve">
<g>
	<path fill="#EF4F24" d="M-522.3,64.3c-22.8,0-41.3,18.5-41.3,41.3c0,22.8,18.5,41.3,41.3,41.3c22.8,0,41.3-18.5,41.3-41.3
		C-480.9,82.8-499.5,64.3-522.3,64.3z M-522.3,141.7c-19.9,0-36-16.1-36-36c0-19.9,16.1-36,36-36c19.9,0,36,16.1,36,36
		C-486.3,125.5-502.4,141.7-522.3,141.7z"/>
</g>
<path fill="#EF4F24" d="M-528.1,128.9h9.3v-23.3h6.5l0.7-7.8h-7.2c0,0,0-2.9,0-4.4c0-1.8,0.4-2.6,2.1-2.6c1.4,0,5,0,5,0v-8.1
	c0,0-5.3,0-6.4,0c-6.9,0-10,3-10,8.9c0,5.1,0,6.2,0,6.2h-4.8v7.9h4.8V128.9z"/>
</svg>
