<?xml version="1.0" encoding="utf-8"?>
<!-- Generator: Adobe Illustrator 17.1.0, SVG Export Plug-In . SVG Version: 6.00 Build 0)  -->
<!DOCTYPE svg PUBLIC "-//W3C//DTD SVG 1.1//EN" "http://www.w3.org/Graphics/SVG/1.1/DTD/svg11.dtd">
<svg version="1.1" id="Layer_1" xmlns="http://www.w3.org/2000/svg" xmlns:xlink="http://www.w3.org/1999/xlink" x="0px" y="0px"
	 viewBox="0 0 34 23.6" enable-background="new 0 0 34 23.6" xml:space="preserve">
<g>
	<path fill="#ff0000" d="M20.1,0.7c-1.2,0-2.4,0.6-3.1,1.5c-0.7-0.9-1.9-1.5-3.1-1.5c-2.2,0-3.9,1.8-3.9,3.9c0,1,0.4,2,1.1,2.7
		l5.5,5.6l0.4,0.4l0.4-0.4l5.4-5.5C23.5,6.7,24,5.7,24,4.7C24,2.5,22.2,0.7,20.1,0.7L20.1,0.7z"/>
	<g>
		<path fill="#00016C" d="M33,10.4c-0.8-0.8-2.1-0.8-3,0l-6.6,6.7c-0.2,0.2-0.4,0.3-0.7,0.3c-0.2,0-0.5-0.1-0.7-0.3
			c-0.4-0.4-0.4-1,0-1.3l2.8-2.8c0.6-0.6,0.6-1.6,0-2.2c-0.6-0.6-1.6-0.6-2.2,0l-4,4c-0.3,0.3-0.5,0.8-0.5,1.2l0,7h4.4
			c0.5,0,1.1-0.2,1.5-0.6l9-9C33.8,12.6,33.8,11.3,33,10.4z"/>
		<path fill="#00016C" d="M1,10.4c0.8-0.8,2.2-0.8,3,0l6.6,6.7c0.2,0.2,0.4,0.3,0.7,0.3c0.2,0,0.5-0.1,0.7-0.3c0.4-0.4,0.4-1,0-1.3
			L9.1,13c-0.6-0.6-0.6-1.6,0-2.2c0.6-0.6,1.6-0.6,2.2,0l4,4c0.3,0.3,0.5,0.8,0.5,1.2l0,7h-4.4c-0.5,0-1.1-0.2-1.5-0.6l-9-9
			C0.2,12.6,0.2,11.3,1,10.4z"/>
	</g>
</g>
</svg>
