<?xml version="1.0" encoding="utf-8"?>
<!-- Generator: Adobe Illustrator 17.1.0, SVG Export Plug-In . SVG Version: 6.00 Build 0)  -->
<!DOCTYPE svg PUBLIC "-//W3C//DTD SVG 1.1//EN" "http://www.w3.org/Graphics/SVG/1.1/DTD/svg11.dtd">
<svg version="1.1" id="Layer_1" xmlns="http://www.w3.org/2000/svg" xmlns:xlink="http://www.w3.org/1999/xlink" x="0px" y="0px"
	 viewBox="0 0 34.8 25.8" enable-background="new 0 0 34.8 25.8" xml:space="preserve">
<path fill="#4C4D98" d="M22,5.2c0,2.5-2,4.5-4.5,4.5c-2.5,0-4.5-2-4.5-4.5c0-2.5,2-4.5,4.5-4.5C20,0.7,22,2.7,22,5.2z"/>
<path fill="#4C4D98" d="M25.5,25.3V14c0-2.2-1.7-3.9-3.9-3.9h-1.7l-2.4,5.7l-2.4-5.7h-1.7c-2.1,0-3.9,1.7-3.9,3.9v11.3H25.5z"/>
<g>
	<path fill="#00016C" d="M32.5,6.8c0,2-1.6,3.6-3.6,3.6c-2,0-3.6-1.6-3.6-3.6c0-2,1.6-3.6,3.6-3.6C30.9,3.2,32.5,4.8,32.5,6.8z"/>
	<path fill="#00016C" d="M34.4,23.6V14c0-1.5-1.2-2.7-2.7-2.7h-1.2l-3.3,0v12.3H34.4z"/>
</g>
<g>
	<path fill="#00016C" d="M2.6,6.8c0,2,1.6,3.6,3.6,3.6c2,0,3.6-1.6,3.6-3.6c0-2-1.6-3.6-3.6-3.6C4.2,3.2,2.6,4.8,2.6,6.8z"/>
	<path fill="#00016C" d="M0.6,23.6V14c0-1.5,1.2-2.7,2.7-2.7h1.2l3.3,0v12.3H0.6z"/>
</g>
</svg>
