<?xml version="1.0" encoding="utf-8"?>
<!-- Generator: Adobe Illustrator 17.1.0, SVG Export Plug-In . SVG Version: 6.00 Build 0)  -->
<!DOCTYPE svg PUBLIC "-//W3C//DTD SVG 1.1//EN" "http://www.w3.org/Graphics/SVG/1.1/DTD/svg11.dtd">
<svg version="1.1" id="Layer_1" xmlns="http://www.w3.org/2000/svg" xmlns:xlink="http://www.w3.org/1999/xlink" x="0px" y="0px"
	 viewBox="-191.5 61.3 87.5 88.3" enable-background="new -191.5 61.3 87.5 88.3" xml:space="preserve">
<g>
	<path fill="#EF4F24" d="M-147.6,64.3c-22.8,0-41.3,18.5-41.3,41.3c0,22.8,18.5,41.3,41.3,41.3c22.8,0,41.3-18.5,41.3-41.3
		C-106.3,82.8-124.8,64.3-147.6,64.3z M-147.6,141.7c-19.9,0-36-16.1-36-36c0-19.9,16.1-36,36-36c19.9,0,36,16.1,36,36
		C-111.6,125.5-127.7,141.7-147.6,141.7z"/>
</g>
<rect x="-165.2" y="97.5" fill="#EF4F24" width="7.9" height="25.5"/>
<ellipse fill="#EF4F24" cx="-161.3" cy="89.5" rx="4.7" ry="4.7"/>
<path fill="#EF4F24" d="M-144.6,109.7c0-3.6,1.7-5.7,4.8-5.7c2.9,0,4.3,2.1,4.3,5.7c0,3.7,0,13.4,0,13.4h7.9c0,0,0-9.3,0-16.2
	c0-6.8-3.9-10.1-9.3-10.1c-5.4,0-7.7,4.2-7.7,4.2v-3.4h-7.6v25.5h7.6C-144.6,123.1-144.6,113.6-144.6,109.7z"/>
</svg>
