<?xml version="1.0" encoding="utf-8"?>
<!-- Generator: Adobe Illustrator 17.1.0, SVG Export Plug-In . SVG Version: 6.00 Build 0)  -->
<!DOCTYPE svg PUBLIC "-//W3C//DTD SVG 1.1//EN" "http://www.w3.org/Graphics/SVG/1.1/DTD/svg11.dtd">
<svg version="1.1" id="Layer_1" xmlns="http://www.w3.org/2000/svg" xmlns:xlink="http://www.w3.org/1999/xlink" x="0px" y="0px"
	 viewBox="0 0 13.9 21.3" enable-background="new 0 0 13.9 21.3" xml:space="preserve">
<path fill="#FFFFFF" d="M11.5,7.7h-0.4V5c0-2.3-1.9-4.1-4.1-4.1C4.7,0.9,2.9,2.8,2.9,5v2.6H2.5c-1,0-1.8,0.8-1.8,1.8v9
	c0,1,0.8,1.8,1.8,1.8h9c1,0,1.8-0.8,1.8-1.8v-9C13.3,8.5,12.5,7.7,11.5,7.7z M8,14.6v2.5H6v-2.5c-0.6-0.3-1-1-1-1.7c0-1.1,0.9-2,2-2
	c1.1,0,2,0.9,2,2C9,13.6,8.6,14.2,8,14.6z M9.3,7.7H4.7V5c0-1.3,1-2.3,2.3-2.3c1.3,0,2.3,1,2.3,2.3V7.7z"/>
</svg>
