<?xml version="1.0" encoding="utf-8"?>
<!-- Generator: Adobe Illustrator 17.1.0, SVG Export Plug-In . SVG Version: 6.00 Build 0)  -->
<!DOCTYPE svg PUBLIC "-//W3C//DTD SVG 1.1//EN" "http://www.w3.org/Graphics/SVG/1.1/DTD/svg11.dtd">
<svg version="1.1" id="Layer_1" xmlns="http://www.w3.org/2000/svg" xmlns:xlink="http://www.w3.org/1999/xlink" x="0px" y="0px"
	 viewBox="0 0 34.5 31.5" enable-background="new 0 0 34.5 31.5" xml:space="preserve">
<path fill="#ff0000" d="M24.7,0.8c-3,0-5.7,1.4-7.4,3.7c-1.8-2.3-4.5-3.7-7.4-3.7c-5.2,0-9.4,4.2-9.4,9.4c0,2.4,0.9,4.8,2.6,6.5
	l13.2,13.4l1,1l1-1l13-13.1c1.8-1.8,2.9-4.2,2.9-6.8C34.1,5,29.9,0.8,24.7,0.8L24.7,0.8z"/>
<polygon fill="#FFFFFF" points="25.9,11.1 23,8.2 15.7,15.4 12.2,11.9 9.3,14.9 15.7,21.3 18.7,18.4 18.7,18.4 "/>
</svg>
