<?xml version="1.0" encoding="utf-8"?>
<!-- Generator: Adobe Illustrator 17.1.0, SVG Export Plug-In . SVG Version: 6.00 Build 0)  -->
<!DOCTYPE svg PUBLIC "-//W3C//DTD SVG 1.1//EN" "http://www.w3.org/Graphics/SVG/1.1/DTD/svg11.dtd">
<svg version="1.1" xmlns="http://www.w3.org/2000/svg" xmlns:xlink="http://www.w3.org/1999/xlink" x="0px" y="0px"
	 viewBox="0 0 22.5 22.6" enable-background="new 0 0 22.5 22.6" xml:space="preserve">
<g id="Layer_2">
</g>
<g id="Layer_1">
	<g>
		<path fill-rule="evenodd" clip-rule="evenodd" fill="#FFFFFF" d="M0.7,9.4c0-1.4,0.4-2.7,1.3-3.9C2,5.3,2.2,5.2,2.3,5
			c0.4-0.4,0.8-0.7,1.2-1c0.6-0.5,1.2-0.5,1.8,0C6,4.7,6.5,5.6,7,6.4c0.2,0.3,0.3,0.7,0.4,1.1c0.2,0.6,0,1.2-0.4,1.6
			c-0.3,0.3-0.7,0.7-1.1,1c-0.8,0.6-0.9,1.2-0.5,2.1c0.3,0.8,0.8,1.4,1.3,2c0.7,0.8,1.4,1.6,2.3,2.3c0.5,0.4,1,0.7,1.6,0.8
			c0.5,0.1,0.9-0.1,1.3-0.4c0.4-0.4,0.7-0.7,1.1-1.1c0.6-0.6,1.3-0.6,2.1-0.3c0.2,0.1,0.5,0.2,0.7,0.4c0.8,0.6,1.6,1.1,2.2,1.9
			c0.5,0.6,0.5,1.3-0.1,1.8c-0.5,0.5-1.1,1.1-1.7,1.5c-0.9,0.6-1.9,0.8-2.9,0.9c-1.3,0-2.5-0.3-3.6-0.9c-1.4-0.7-2.6-1.6-3.6-2.7
			c-1.3-1.2-2.4-2.5-3.4-4c-0.8-1.2-1.4-2.5-1.7-4C0.7,10.1,0.7,9.7,0.7,9.4z"/>
		<g>
			<g>
				<path fill="#FFFFFF" d="M15.7,6.8c1,1,1.5,2.2,1.6,3.4h0.9c-0.1-1.5-0.8-2.9-1.9-4.1c-1.1-1.1-2.6-1.8-4.1-1.9v0.9
					C13.5,5.3,14.7,5.8,15.7,6.8z"/>
			</g>
			<path fill="#FFFFFF" d="M18.1,4.4c2.1,2.1,2.8,5,2.3,7.6h1.3c0.5-3-0.3-6.2-2.7-8.6c-2.3-2.3-5.5-3.2-8.6-2.7l0,1.3
				C13.1,1.5,16,2.3,18.1,4.4z"/>
		</g>
	</g>
</g>
</svg>
