<?xml version="1.0" encoding="utf-8"?>
<!-- Generator: Adobe Illustrator 17.1.0, SVG Export Plug-In . SVG Version: 6.00 Build 0)  -->
<!DOCTYPE svg PUBLIC "-//W3C//DTD SVG 1.1//EN" "http://www.w3.org/Graphics/SVG/1.1/DTD/svg11.dtd">
<svg version="1.1" id="Layer_1" xmlns="http://www.w3.org/2000/svg" xmlns:xlink="http://www.w3.org/1999/xlink" x="0px" y="0px"
	 viewBox="0 0 33.9 45.2" enable-background="new 0 0 33.9 45.2" xml:space="preserve">
<path fill="#00016C" d="M31,5.4H3c-1.2,0-2.2,1-2.2,2.2v12v10.7v12c0,1.2,1,2.2,2.2,2.2h28c1.2,0,2.2-1,2.2-2.2v-12V19.5v-12
	C33.2,6.3,32.2,5.4,31,5.4z M29.9,41.1H4.1V8.4h25.7V41.1z"/>
<polygon fill="#4C4D98" points="24.8,21.9 22,19.1 15.3,25.9 12,22.6 9.2,25.4 12.5,28.6 12.5,28.6 15.3,31.4 18,28.6 18,28.6 "/>
<g>
	<rect x="10.1" y="3.3" fill="#FFFFFF" width="13.9" height="4.2"/>
	<path fill="#00016D" d="M8.1,1.3v8.2h17.9V1.3H8.1z M23.9,7.4H10.1V3.3h13.9V7.4z"/>
</g>
</svg>
