<?xml version="1.0" encoding="utf-8"?>
<!-- Generator: Adobe Illustrator 17.1.0, SVG Export Plug-In . SVG Version: 6.00 Build 0)  -->
<!DOCTYPE svg PUBLIC "-//W3C//DTD SVG 1.1//EN" "http://www.w3.org/Graphics/SVG/1.1/DTD/svg11.dtd">
<svg version="1.1" xmlns="http://www.w3.org/2000/svg" xmlns:xlink="http://www.w3.org/1999/xlink" x="0px" y="0px"
	 viewBox="0 0 61 59.8" enable-background="new 0 0 61 59.8" xml:space="preserve">
<g id="Layer_2">
</g>
<g id="Icons">
	<g>
		<path fill="#FFFFFF" d="M42.7,40.4L42.7,40.4c0.3-0.4,0.6-0.7,0.9-1.1l0.1-0.1l0.1-0.1c3-3.9,4.5-8.6,4.5-13.5
			c0-6-2.3-11.7-6.6-15.9C37.4,5.4,31.8,3,25.7,3c-6,0-11.7,2.3-15.9,6.6c-4.3,4.3-6.6,9.9-6.6,15.9s2.3,11.7,6.6,15.9
			c4.3,4.3,9.9,6.6,15.9,6.6c5,0,9.9-1.7,13.8-4.7c0.3-0.3,0.7-0.5,1-0.8l0.1,0l0.1-0.1c0.4-0.3,0.7-0.7,1-1
			C42,41.2,42.3,40.8,42.7,40.4L42.7,40.4z M38.2,38c-3.3,3.3-7.7,5.1-12.4,5.1c-4.7,0-9.1-1.8-12.4-5.1c-3.3-3.3-5.1-7.7-5.1-12.4
			c0-4.7,1.8-9.1,5.1-12.4C16.6,9.8,21,8,25.7,8c4.7,0,9.1,1.8,12.4,5.1c3.3,3.3,5.1,7.7,5.1,12.4C43.3,30.2,41.5,34.7,38.2,38z
			 M57.3,51.8l-0.7-0.7l0,0l-7.3-7.3c0,0-0.1,0-0.1,0c0,0-0.1,0-0.1,0l-0.2,0.2l-3.4,3.4L44,49c0,0,0,0.1,0,0.1c0,0,0,0.1,0,0.1
			l7.9,8c0,0,0.1,0,0.1,0c0,0,0.1,0,0.1,0l2.6-2.6l2.6-2.6c0,0,0-0.1,0-0.1C57.4,51.9,57.4,51.8,57.3,51.8z M46.3,43.4l-1.7-1.7
			c-0.1,0.1-0.1,0.2-0.2,0.2l0,0l0,0.1c-0.4,0.4-0.7,0.7-1,1.1c-0.3,0.3-0.6,0.6-1.1,1l0,0l0,0c-0.1,0.1-0.2,0.2-0.3,0.2l1.7,1.7
			l1.3-1.3L46.3,43.4z"/>
		<path fill="#FFFFFF" d="M52.1,57.7c-0.2,0-0.4-0.1-0.5-0.2l-7.9-7.9c-0.1-0.1-0.2-0.3-0.2-0.5c0-0.2,0.1-0.3,0.2-0.5l5.2-5.2
			c0.3-0.3,0.7-0.2,0.9,0l7.8,7.8l0,0l0.1,0.1c0.1,0.1,0.2,0.3,0.2,0.5c0,0.2-0.1,0.3-0.2,0.5l-5.1,5.1
			C52.4,57.6,52.3,57.7,52.1,57.7z M44.6,49.1l7.5,7.5l4.7-4.7L55.8,51l0,0l-6.5-6.5L44.6,49.1z M25.7,48.6
			c-6.2,0-11.9-2.4-16.3-6.7c-4.4-4.4-6.7-10.1-6.7-16.3c0-6.2,2.4-11.9,6.7-16.3c4.4-4.4,10.1-6.7,16.3-6.7
			c6.2,0,11.9,2.4,16.3,6.7c4.4,4.3,6.7,10.1,6.7,16.3c0,5-1.6,9.8-4.6,13.8L44,39.6c-0.3,0.4-0.6,0.7-0.9,1L43,40.8
			c-0.3,0.4-0.7,0.7-1,1c-0.3,0.3-0.7,0.6-1.1,1l-0.1,0.1c-0.3,0.3-0.7,0.6-1,0.8C35.8,46.9,30.8,48.6,25.7,48.6z M25.7,3.5
			c-5.9,0-11.4,2.3-15.6,6.5C6,14.1,3.7,19.7,3.7,25.6c0,5.9,2.3,11.4,6.5,15.6c4.2,4.2,9.7,6.5,15.6,6.5c4.9,0,9.6-1.6,13.5-4.6
			c0.3-0.3,0.6-0.5,1-0.8l0.4,0.3l-0.3-0.4c0.4-0.3,0.7-0.6,1-0.9c0.3-0.3,0.6-0.6,0.9-1l0.1-0.1c0.3-0.3,0.6-0.7,0.8-1l0.2-0.2
			c2.9-3.8,4.4-8.4,4.4-13.2c0-5.9-2.3-11.4-6.5-15.6C37.2,5.8,31.6,3.5,25.7,3.5z M43.6,46.8l-2.4-2.4l0.7-0.6
			c0.4-0.4,0.8-0.7,1.1-1c0.3-0.3,0.6-0.7,1-1l0.4,0.2l0,0L44,41.7l0.5-0.6l0.4,0.3l2,2L43.6,46.8z M42.7,44.4l1,1l2-2l-0.9-0.9
			c-0.3,0.4-0.7,0.7-1,1C43.4,43.8,43.1,44.1,42.7,44.4z M25.7,43.6c-4.8,0-9.4-1.9-12.8-5.3c-3.4-3.4-5.3-7.9-5.3-12.8
			c0-4.8,1.9-9.4,5.3-12.8c3.4-3.4,8-5.3,12.8-5.3c4.8,0,9.4,1.9,12.8,5.3c3.4,3.4,5.3,8,5.3,12.8c0,4.8-1.9,9.4-5.3,12.8
			C35.1,41.7,30.6,43.6,25.7,43.6z M25.7,8.5c-4.6,0-8.9,1.8-12.1,5c-3.2,3.2-5,7.5-5,12.1c0,4.6,1.8,8.8,5,12.1
			c3.2,3.2,7.5,5,12.1,5c4.6,0,8.9-1.8,12.1-5c3.2-3.2,5-7.5,5-12.1c0-4.6-1.8-8.8-5-12.1C34.6,10.3,30.3,8.5,25.7,8.5z"/>
	</g>
</g>
</svg>
