<?xml version="1.0" encoding="utf-8"?>
<!-- Generator: Adobe Illustrator 17.1.0, SVG Export Plug-In . SVG Version: 6.00 Build 0)  -->
<!DOCTYPE svg PUBLIC "-//W3C//DTD SVG 1.1//EN" "http://www.w3.org/Graphics/SVG/1.1/DTD/svg11.dtd">
<svg version="1.1" id="Layer_1" xmlns="http://www.w3.org/2000/svg" xmlns:xlink="http://www.w3.org/1999/xlink" x="0px" y="0px"
	 viewBox="0 0 34.2 25.2" enable-background="new 0 0 34.2 25.2" xml:space="preserve">
<path fill="#00016C" d="M33.8,15.4c0,0.7-0.5,1.3-1.2,1.3H17.4c-0.7,0-1.2-0.6-1.2-1.3V1.8c0-0.7,0.5-1.3,1.2-1.3h15.2
	c0.7,0,1.2,0.6,1.2,1.3V15.4z"/>
<rect x="18.2" y="2.5" fill="#FFFFFF" width="13.7" height="12.3"/>
<circle fill="#4C4D98" cx="10.9" cy="7.5" r="3.6"/>
<path fill="#4C4D98" d="M24.3,6c-0.5-0.7-1.6-0.9-2.3-0.3L13.5,12h-7v0c-0.6,0-1.2,0.3-1.5,0.9l-4.4,9.5c-0.4,0.8,0,1.8,0.8,2.2
	c0.2,0.1,0.5,0.2,0.7,0.2c0.6,0,1.2-0.4,1.5-0.9l2.9-6.3v6h8.8v-8.8L24,8.3C24.7,7.8,24.8,6.7,24.3,6z"/>
</svg>
