<?xml version="1.0" encoding="utf-8"?>
<!-- Generator: Adobe Illustrator 17.1.0, SVG Export Plug-In . SVG Version: 6.00 Build 0)  -->
<!DOCTYPE svg PUBLIC "-//W3C//DTD SVG 1.1//EN" "http://www.w3.org/Graphics/SVG/1.1/DTD/svg11.dtd">
<svg version="1.1" id="Layer_1" xmlns="http://www.w3.org/2000/svg" xmlns:xlink="http://www.w3.org/1999/xlink" x="0px" y="0px"
	 viewBox="0 0 26.3 35.8" enable-background="new 0 0 26.3 35.8" xml:space="preserve">
<g>
	<polygon fill="#70a0f2" points="13.3,2.5 17.2,1 19.4,4.5 23.4,5.6 23.2,9.7 25.8,13 23.2,16.2 23.4,20.4 19.4,21.4 17.2,24.9 
		13.3,23.4 9.4,24.9 7.1,21.4 3.1,20.4 3.3,16.2 0.7,13 3.3,9.7 3.1,5.6 7.1,4.5 9.4,1 	"/>
	<g>
		<polygon fill="#4285f5" points="8.9,26.3 6.4,22.4 4.9,22 1.5,32.4 6.7,30.4 9.7,35 13,24.8 		"/>
		<polygon fill="#4285f5" points="20.2,22.4 17.6,26.3 13.4,24.7 16.7,35 19.8,30.4 24.9,32.4 21.6,22.1 		"/>
	</g>
	<circle fill="#FFFFFF" cx="13.3" cy="13" r="8"/>
</g>
<polygon fill="#4285f5" points="20.5,12.1 13.3,9.5 6.1,12.1 10.2,13.5 10.2,16.5 16.4,16.5 16.4,13.5 "/>
</svg>
