<?xml version="1.0" encoding="utf-8"?>
<!-- Generator: Adobe Illustrator 17.1.0, SVG Export Plug-In . SVG Version: 6.00 Build 0)  -->
<!DOCTYPE svg PUBLIC "-//W3C//DTD SVG 1.1//EN" "http://www.w3.org/Graphics/SVG/1.1/DTD/svg11.dtd">
<svg version="1.1" xmlns="http://www.w3.org/2000/svg" xmlns:xlink="http://www.w3.org/1999/xlink" x="0px" y="0px"
	 viewBox="0 0 25.6 25.5" enable-background="new 0 0 25.6 25.5" xml:space="preserve">
<g id="Layer_2">
</g>
<g id="Layer_1">
	<g>
		<path fill="#FFFFFF" d="M7,12.9c0-1,0.2-1.9,0.7-2.7L3.4,6C2,7.9,1.1,10.3,1.1,12.9c0,2.6,0.9,5,2.3,6.9l4.2-4.2
			C7.2,14.8,7,13.8,7,12.9z"/>
		<path fill="#FFFFFF" d="M15.5,18c-0.8,0.4-1.7,0.7-2.7,0.7c-1,0-1.9-0.2-2.7-0.7l-4.2,4.2c1.9,1.4,4.3,2.3,6.9,2.3
			c2.6,0,5-0.9,6.9-2.3L15.5,18z"/>
		<path fill="#FFFFFF" d="M18.7,12.9c0,1-0.2,1.9-0.7,2.7l4.2,4.2c1.4-1.9,2.3-4.3,2.3-6.9c0-2.6-0.9-5-2.3-6.9L18,10.2
			C18.4,11,18.7,11.9,18.7,12.9z"/>
		<path fill="#FFFFFF" d="M10.1,7.7C10.9,7.3,11.9,7,12.8,7c1,0,1.9,0.2,2.7,0.7l4.2-4.2c-1.9-1.4-4.3-2.3-6.9-2.3
			c-2.6,0-5,0.9-6.9,2.3L10.1,7.7z"/>
	</g>
</g>
</svg>
