<?xml version="1.0" encoding="utf-8"?>
<!-- Generator: Adobe Illustrator 17.1.0, SVG Export Plug-In . SVG Version: 6.00 Build 0)  -->
<!DOCTYPE svg PUBLIC "-//W3C//DTD SVG 1.1//EN" "http://www.w3.org/Graphics/SVG/1.1/DTD/svg11.dtd">
<svg version="1.1" id="Layer_1" xmlns="http://www.w3.org/2000/svg" xmlns:xlink="http://www.w3.org/1999/xlink" x="0px" y="0px"
	 viewBox="0 0 35.6 32.5" enable-background="new 0 0 35.6 32.5" xml:space="preserve">
<path fill="#00016C" d="M25.3,1.1c-3,0-5.7,1.4-7.5,3.7c-1.8-2.3-4.5-3.7-7.5-3.7c-5.2,0-9.5,4.3-9.5,9.5c0,2.5,0.9,4.8,2.6,6.6
	l13.4,13.5l1,1l1-1l13.1-13.2c1.9-1.8,2.9-4.2,2.9-6.9C34.8,5.3,30.5,1.1,25.3,1.1L25.3,1.1z"/>
<g>
	<g>
		<path fill="#4C4D98" d="M20,19.1c-1.3,1.1-3.2,1-4.4-0.3l0,0c-1.1-1.3-1-3.2,0.3-4.4l6.9-6c1.3-1.1,3.2-1,4.4,0.3l0,0
			c1.1,1.3,1,3.2-0.3,4.4L20,19.1z"/>
		<path fill="#FFFFFF" d="M18,20.4c-1,0-2-0.4-2.7-1.2c-1.3-1.5-1.2-3.8,0.3-5.1l6.9-6c0.7-0.6,1.5-0.9,2.4-0.9c1,0,2,0.4,2.7,1.2
			c0.6,0.7,0.9,1.6,0.9,2.6c-0.1,1-0.5,1.8-1.2,2.5l-6.9,6C19.7,20.1,18.9,20.4,18,20.4z M24.9,8.2c-0.6,0-1.2,0.2-1.7,0.6l-6.9,6
			c-1.1,0.9-1.2,2.6-0.2,3.7c0.9,1,2.6,1.1,3.7,0.2l6.9-6c0.5-0.5,0.8-1.1,0.9-1.8c0-0.7-0.2-1.4-0.6-1.9
			C26.3,8.5,25.6,8.2,24.9,8.2z"/>
	</g>
	<g>
		
			<rect x="18.5" y="10.7" transform="matrix(0.657 0.7539 -0.7539 0.657 17.725 -11.4263)" fill="#FFFFFF" width="5.9" height="6.1"/>
	</g>
</g>
</svg>
