<?xml version="1.0" encoding="utf-8"?>
<!-- Generator: Adobe Illustrator 17.1.0, SVG Export Plug-In . SVG Version: 6.00 Build 0)  -->
<!DOCTYPE svg PUBLIC "-//W3C//DTD SVG 1.1//EN" "http://www.w3.org/Graphics/SVG/1.1/DTD/svg11.dtd">
<svg version="1.1" id="Layer_1" xmlns="http://www.w3.org/2000/svg" xmlns:xlink="http://www.w3.org/1999/xlink" x="0px" y="0px"
	 viewBox="0 0 34.9 23.7" enable-background="new 0 0 34.9 23.7" xml:space="preserve">
<circle fill="#4C4D98" cx="6.3" cy="4.7" r="4.1"/>
<path fill="#4C4D98" d="M18.3,18l-3.3-1.7L11.6,11c0,0,0-0.1-0.1-0.1l-0.3-0.4c-0.3-0.4-0.7-0.7-1.2-0.8l-1.5,3.4L6.4,9.7h-3
	c-1.5,0-2.7,1.2-2.7,2.7v10.8H12v-4.9l0.4,0.7l4.2,2.2c0.3,0.1,0.6,0.2,0.8,0.2c0.7,0,1.3-0.4,1.6-1C19.5,19.6,19.2,18.5,18.3,18z"
	/>
<circle fill="#00016C" cx="28.6" cy="4.7" r="4.1"/>
<path fill="#00016C" d="M31.6,9.7h-3l-2.2,3.4l-1.5-3.4c-0.5,0.1-0.9,0.3-1.2,0.8l-0.3,0.4c0,0,0,0.1-0.1,0.1L20,16.3L16.7,18
	c-0.9,0.5-1.2,1.5-0.8,2.4c0.3,0.6,0.9,1,1.6,1c0.3,0,0.6-0.1,0.8-0.2l4.2-2.2l0.4-0.7v4.9h11.4V12.5C34.3,10.9,33.1,9.7,31.6,9.7z"
	/>
</svg>
